<svg width="20" height="20" viewBox="0 0 20 20" fill="none" xmlns="http://www.w3.org/2000/svg">
<path d="M6.29 18.251C13.837 18.251 17.965 11.998 17.965 6.57596C17.965 6.39796 17.965 6.22096 17.953 6.04596C18.7562 5.46448 19.4493 4.74457 20 3.91996C19.2511 4.25196 18.4566 4.46972 17.643 4.56596C18.4996 4.05302 19.1408 3.24631 19.447 2.29596C18.6417 2.77384 17.7607 3.11069 16.842 3.29196C16.2234 2.63372 15.405 2.19779 14.5136 2.05166C13.6222 1.90553 12.7075 2.05736 11.9111 2.48363C11.1147 2.9099 10.4811 3.58683 10.1083 4.40962C9.7355 5.2324 9.64437 6.15514 9.849 7.03496C8.21759 6.9532 6.6216 6.52928 5.16465 5.79073C3.70769 5.05217 2.42233 4.01548 1.392 2.74796C0.867318 3.65116 0.706589 4.72038 0.942536 5.73792C1.17848 6.75547 1.79337 7.64483 2.662 8.22496C2.00926 8.20602 1.37065 8.03042 0.8 7.71296V7.76496C0.800389 8.71225 1.1284 9.63026 1.7284 10.3633C2.3284 11.0964 3.16347 11.5993 4.092 11.787C3.48781 11.9517 2.85389 11.9756 2.239 11.857C2.50116 12.6724 3.01168 13.3856 3.69913 13.8966C4.38658 14.4076 5.21657 14.6909 6.073 14.707C5.22212 15.3755 4.24779 15.8698 3.20573 16.1615C2.16367 16.4532 1.07432 16.5366 0 16.407C1.8766 17.6113 4.06019 18.2501 6.29 18.247" fill="#0080CB"/>
</svg>
