<svg width="33" height="23" viewBox="0 0 33 23" fill="none" xmlns="http://www.w3.org/2000/svg">
<path d="M0.502254 4.6875C0.28661 4.6875 0.205744 4.745 0.178789 4.77376C0.178789 4.77376 0.124878 4.80251 0.124878 4.91752C0.124878 5.98135 2.44304 8.48278 3.17084 8.48278H10.934L12.6052 4.6875H0.502254Z" fill="#222222"/>
<path d="M3.35967 9.20117C3.14403 9.20117 3.06316 9.25868 3.03621 9.28743C3.03621 9.28743 2.9823 9.31618 2.9823 9.43119C2.9823 10.495 5.30041 12.9964 6.05514 12.9964H8.96626L10.6375 9.20117H3.35967Z" fill="#222222"/>
<path d="M6.45936 13.7148C6.32459 13.7148 6.13591 13.7436 6.082 13.8586C5.97418 14.2611 6.59413 15.3825 7.48363 16.3313L8.61572 13.7436H6.45936V13.7148Z" fill="#222222"/>
<path d="M29.0209 8.48278C29.7756 8.48278 32.0938 5.98135 32.0938 4.91752C32.0938 4.80251 32.0668 4.77376 32.0398 4.77376C32.0129 4.745 31.932 4.6875 31.7164 4.6875H19.5867L21.177 8.48278H29.0209Z" fill="#222222"/>
<path d="M26.1637 12.9964C26.9185 12.9964 29.2097 10.495 29.2097 9.43119C29.2097 9.31618 29.1828 9.28743 29.1558 9.28743C29.1288 9.25868 29.048 9.20117 28.8323 9.20117H21.5004L23.0908 12.9964H26.1637Z" fill="#222222"/>
<path d="M26.0828 13.8586C26.0558 13.7436 25.8402 13.7148 25.7054 13.7148H23.3873L24.5464 16.4463C25.5167 15.4975 26.2175 14.2611 26.0828 13.8586Z" fill="#222222"/>
<path d="M16.1364 0L6.43262 22.2254H10.368L12.3897 17.51H19.5866L21.5004 22.2254H25.4897L16.1364 0ZM16.0555 8.85565L18.0771 13.801H13.953L16.0555 8.85565Z" fill="#222222"/>
</svg>
