<svg width="163" height="20" viewBox="0 0 163 20" fill="none" xmlns="http://www.w3.org/2000/svg">
<g clip-path="url(#clip0_382_7467)">
<path d="M13.3763 15.0421L16.4083 19.2526C16.714 19.6762 16.5102 20.0001 16.0006 20.0001H13.3508C13.0196 20.0001 12.7648 19.8755 12.5865 19.6014L9.8093 15.3909H3.54154V19.3772C3.54154 19.7758 3.31223 20.0001 2.90457 20.0001H0.636968C0.229308 20.0001 0 19.7758 0 19.3772V3.03961C0 2.64098 0.229308 2.41675 0.636968 2.41675H9.88574C15.1089 2.41675 17.0962 4.55938 17.0962 8.76991V9.14362C17.0962 12.1832 16.1025 14.2511 13.3763 15.0483V15.0421ZM13.5292 8.78859C13.5292 6.1975 12.3827 5.72413 9.60547 5.72413H3.54154V12.1022H9.60547C12.3317 12.1022 13.5292 11.6537 13.5292 9.11248V8.78859Z" fill="#8A7A28"/>
<path d="M27.0966 19.3772V3.03961C27.0966 2.64098 27.3259 2.41675 27.7335 2.41675H41.6704C42.078 2.41675 42.3073 2.64098 42.3073 3.03961V5.1075C42.3073 5.50613 42.078 5.73036 41.6704 5.73036H30.6126V9.56717H37.7721C38.1798 9.56717 38.4091 9.7914 38.4091 10.19V12.0088C38.4091 12.4074 38.1798 12.6316 37.7721 12.6316H30.6126V16.6927H41.6704C42.078 16.6927 42.3073 16.9169 42.3073 17.3155V19.3834C42.3073 19.7821 42.078 20.0063 41.6704 20.0063H27.7335C27.3259 20.0063 27.0966 19.7821 27.0966 19.3834V19.3772Z" fill="#8A7A28"/>
<path d="M51.8556 14.7181C51.8301 14.2945 52.0594 14.0703 52.467 14.0703H54.7346C55.1423 14.0703 55.3461 14.2945 55.3716 14.6932C55.5245 16.1382 56.2124 16.6863 57.8685 16.6863H62.8624C64.7987 16.6863 65.4867 16.213 65.4867 14.7679C65.4867 13.3229 64.8242 12.999 63.1171 12.8744L57.4354 12.4509C53.5117 12.1519 51.9575 10.9062 51.9575 7.6175C51.9575 4.32881 53.6136 2.4104 58.0469 2.4104H62.7095C66.7351 2.4104 68.5441 4.17932 68.7225 7.69224C68.7479 8.11579 68.5186 8.34002 68.111 8.34002H65.8179C65.4102 8.34002 65.2064 8.11579 65.1809 7.71716C65.028 6.27213 64.3401 5.72401 62.7095 5.72401H58.0978C56.136 5.72401 55.4481 6.17247 55.4481 7.64242C55.4481 9.0127 56.1105 9.36151 57.8176 9.48608L63.4993 9.90962C67.3721 10.2086 69.0027 11.5291 69.0027 14.7928C69.0027 18.0566 67.3466 19.9999 62.8878 19.9999H57.8685C53.8174 19.9999 52.0339 18.231 51.8556 14.7181Z" fill="#8A7A28"/>
<path d="M78.8629 13.9457V8.4895C78.8629 4.75235 80.6719 2.4104 84.9014 2.4104H90.5831C94.8126 2.4104 96.6216 4.75235 96.6216 8.4895V8.56425C96.6216 8.96288 96.3923 9.18711 95.9846 9.18711H93.717C93.3093 9.18711 93.08 9.0127 93.08 8.76356V8.36493C93.08 6.19738 92.3412 5.72401 90.5831 5.72401H84.9014C83.1433 5.72401 82.4045 6.19738 82.4045 8.36493V14.0703C82.4045 16.213 83.1943 16.6863 84.9014 16.6863H90.5831C92.2902 16.6863 93.08 16.213 93.08 14.0703V13.5969C93.08 13.1983 93.3093 12.9741 93.717 12.9741H95.9846C96.3923 12.9741 96.6216 13.1485 96.6216 13.4475V13.9457C96.6216 17.658 94.8126 19.9999 90.5831 19.9999H84.9014C80.6719 19.9999 78.8629 17.658 78.8629 13.9457Z" fill="#8A7A28"/>
<path d="M106.456 13.9457V8.4895C106.456 4.75235 108.265 2.4104 112.495 2.4104H119.043C123.272 2.4104 125.081 4.75235 125.081 8.4895V13.9457C125.081 17.658 123.272 19.9999 119.043 19.9999H112.495C108.265 19.9999 106.456 17.658 106.456 13.9457ZM119.043 16.6863C120.75 16.6863 121.54 16.213 121.54 14.0703V8.36493C121.54 6.19738 120.826 5.72401 119.043 5.72401H112.495C110.737 5.72401 109.998 6.19738 109.998 8.36493V14.0703C109.998 16.213 110.788 16.6863 112.495 16.6863H119.043Z" fill="#8A7A28"/>
<path d="M135.317 19.3772V3.03961C135.317 2.64098 135.547 2.41675 135.954 2.41675H138.247C138.579 2.41675 138.833 2.54132 139.037 2.79046L148.923 14.7992V3.03961C148.923 2.64098 149.152 2.41675 149.56 2.41675H151.828C152.235 2.41675 152.465 2.64098 152.465 3.03961V19.3772C152.465 19.7758 152.235 20.0001 151.828 20.0001H149.534C149.203 20.0001 148.948 19.8755 148.745 19.6263L138.859 7.69236V19.3772C138.859 19.7758 138.63 20.0001 138.222 20.0001H135.954C135.547 20.0001 135.317 19.7758 135.317 19.3772Z" fill="#8A7A28"/>
<path d="M163 2.13018V4.04235C163 5.28807 162.58 6.16008 160.885 6.16008H158.541C156.847 6.16008 156.427 5.28807 156.427 4.04235V2.13018C156.427 0.872003 156.847 0 158.541 0H160.885C162.58 0 163 0.872003 163 2.13018ZM162.178 1.97446C162.178 1.10869 161.796 0.784802 161.038 0.784802H158.388C157.637 0.784802 157.261 1.10869 157.261 1.97446V4.19184C157.261 5.06384 157.662 5.38773 158.388 5.38773H161.038C161.777 5.38773 162.178 5.06384 162.178 4.19184V1.97446ZM161.605 2.60978V2.72189C161.605 3.28247 161.408 3.67487 160.822 3.84927L161.363 4.59047C161.471 4.73996 161.401 4.85207 161.223 4.85207H160.752C160.637 4.85207 160.548 4.80847 160.484 4.71504L159.949 3.93647H158.79V4.63407C158.79 4.7711 158.707 4.85207 158.567 4.85207H158.159C158.019 4.85207 157.936 4.7711 157.936 4.63407V1.56338C157.936 1.42635 158.019 1.34538 158.159 1.34538H159.923C161.178 1.34538 161.611 1.78138 161.611 2.60978H161.605ZM158.783 3.13921H160.121C160.586 3.13921 160.752 3.00841 160.752 2.70944V2.60355C160.752 2.27966 160.592 2.14263 160.121 2.14263H158.783V3.13921Z" fill="#8A7A28"/>
</g>
<defs>
<clipPath id="clip0_382_7467">
<rect width="163" height="20" fill="white"/>
</clipPath>
</defs>
</svg>
