<svg width="183" height="185" viewBox="0 0 183 185" fill="none" xmlns="http://www.w3.org/2000/svg">
<g clip-path="url(#clip0_595_8112)">
<path d="M21.3594 153.018L24.6349 157.638C24.9652 158.103 24.745 158.459 24.1945 158.459H21.3319C20.9741 158.459 20.6988 158.322 20.5061 158.021L17.5059 153.401H10.7348V157.775C10.7348 158.213 10.487 158.459 10.0466 158.459H7.59691C7.15651 158.459 6.90878 158.213 6.90878 157.775V139.84C6.90878 139.402 7.15651 139.156 7.59691 139.156H17.5885C23.2311 139.156 25.3781 141.508 25.3781 146.128V146.538C25.3781 149.874 24.3046 152.143 21.3594 153.018ZM21.5246 146.155C21.5246 143.312 20.2859 142.793 17.2857 142.793H10.7348V149.792H17.2857C20.2309 149.792 21.5246 149.3 21.5246 146.511V146.155Z" fill="#8A7A28"/>
<path d="M36.1816 157.775V139.84C36.1816 139.402 36.4294 139.156 36.8698 139.156H51.9259C52.3663 139.156 52.6141 139.402 52.6141 139.84V142.109C52.6141 142.546 52.3663 142.793 51.9259 142.793H39.9801V147.003H47.7146C48.155 147.003 48.4027 147.249 48.4027 147.687V149.682C48.4027 150.12 48.155 150.366 47.7146 150.366H39.9801V154.822H51.9259C52.3663 154.822 52.6141 155.068 52.6141 155.506V157.775C52.6141 158.213 52.3663 158.459 51.9259 158.459H36.8698C36.4294 158.459 36.1816 158.213 36.1816 157.775Z" fill="#8A7A28"/>
<path d="M62.929 152.663C62.9015 152.198 63.1493 151.952 63.5897 151.952H66.0394C66.4798 151.952 66.7 152.198 66.7275 152.635C66.8926 154.221 67.6358 154.822 69.4249 154.822H74.8198C76.9117 154.822 77.6549 154.303 77.6549 152.717C77.6549 151.131 76.9393 150.776 75.0951 150.639L68.957 150.175C64.7182 149.846 63.0391 148.479 63.0391 144.87C63.0391 141.261 64.8283 139.156 69.6176 139.156H74.6547C79.0036 139.156 80.9579 141.097 81.1506 144.952C81.1781 145.417 80.9304 145.663 80.49 145.663H78.0127C77.5723 145.663 77.3521 145.417 77.3246 144.98C77.1595 143.394 76.4163 142.793 74.6547 142.793H69.6727C67.5532 142.793 66.8101 143.285 66.8101 144.898C66.8101 146.402 67.5257 146.784 69.3699 146.921L75.508 147.386C79.6918 147.714 81.4534 149.163 81.4534 152.745C81.4534 156.326 79.6642 158.459 74.8474 158.459H69.4249C65.0485 158.459 63.1217 156.518 62.929 152.663Z" fill="#8A7A28"/>
<path d="M92.1056 151.815V145.827C92.1056 141.726 94.0598 139.156 98.629 139.156H104.767C109.336 139.156 111.291 141.726 111.291 145.827V145.909C111.291 146.347 111.043 146.593 110.602 146.593H108.153C107.712 146.593 107.465 146.402 107.465 146.128V145.691C107.465 143.312 106.666 142.793 104.767 142.793H98.629C96.7298 142.793 95.9315 143.312 95.9315 145.691V151.952C95.9315 154.303 96.7848 154.822 98.629 154.822H104.767C106.611 154.822 107.465 154.303 107.465 151.952V151.432C107.465 150.995 107.712 150.749 108.153 150.749H110.602C111.043 150.749 111.291 150.94 111.291 151.268V151.815C111.291 155.889 109.336 158.459 104.767 158.459H98.629C94.0598 158.459 92.1056 155.889 92.1056 151.815Z" fill="#8A7A28"/>
<path d="M121.915 151.815V145.827C121.915 141.726 123.869 139.156 128.439 139.156H135.512C140.082 139.156 142.036 141.726 142.036 145.827V151.815C142.036 155.889 140.082 158.459 135.512 158.459H128.439C123.869 158.459 121.915 155.889 121.915 151.815ZM135.512 154.822C137.357 154.822 138.21 154.303 138.21 151.952V145.691C138.21 143.312 137.439 142.793 135.512 142.793H128.439C126.539 142.793 125.741 143.312 125.741 145.691V151.952C125.741 154.303 126.594 154.822 128.439 154.822H135.512Z" fill="#8A7A28"/>
<path d="M153.094 157.775V139.84C153.094 139.402 153.342 139.156 153.782 139.156H156.259C156.617 139.156 156.893 139.293 157.113 139.566L167.792 152.745V139.84C167.792 139.402 168.04 139.156 168.481 139.156H170.93C171.371 139.156 171.618 139.402 171.618 139.84V157.775C171.618 158.213 171.371 158.459 170.93 158.459H168.453C168.095 158.459 167.82 158.322 167.6 158.049L156.92 144.952V157.775C156.92 158.213 156.672 158.459 156.232 158.459H153.782C153.342 158.459 153.094 158.213 153.094 157.775Z" fill="#8A7A28"/>
<path d="M5.05772 171.611L6.20689 173.231C6.32387 173.395 6.24818 173.518 6.0555 173.518H5.05084C4.92698 173.518 4.83064 173.47 4.76183 173.367L3.70899 171.747H1.34184V173.279C1.34184 173.429 1.25239 173.518 1.101 173.518H0.240844C0.0894563 173.518 0 173.429 0 173.279V166.997C0 166.847 0.0894563 166.758 0.240844 166.758H3.7434C5.71832 166.758 6.46838 167.585 6.46838 169.198V169.341C6.46838 170.51 6.08991 171.303 5.05772 171.611ZM5.11277 169.205C5.11277 168.207 4.67925 168.029 3.62642 168.029H1.34184V170.483H3.6333C4.66549 170.483 5.11965 170.312 5.11965 169.335V169.212L5.11277 169.205Z" fill="#006098"/>
<path d="M8.40201 173.279V166.997C8.40201 166.847 8.49146 166.758 8.64285 166.758H13.9139C14.0653 166.758 14.1547 166.847 14.1547 166.997V167.79C14.1547 167.94 14.0653 168.029 13.9139 168.029H9.73009V169.506H12.4413C12.5927 169.506 12.6821 169.594 12.6821 169.745V170.442C12.6821 170.592 12.5927 170.681 12.4413 170.681H9.73009V172.24H13.9139C14.0653 172.24 14.1547 172.328 14.1547 172.479V173.272C14.1547 173.422 14.0653 173.511 13.9139 173.511H8.64285C8.49146 173.511 8.40201 173.422 8.40201 173.272V173.279Z" fill="#006098"/>
<path d="M15.9163 171.488C15.9094 171.324 15.992 171.242 16.1503 171.242H17.0104C17.1618 171.242 17.2444 171.331 17.2513 171.481C17.3063 172.035 17.5678 172.246 18.194 172.246H20.0864C20.8158 172.246 21.0773 172.062 21.0773 171.508C21.0773 170.955 20.8295 170.825 20.1827 170.784L18.0357 170.62C16.5494 170.503 15.9645 170.025 15.9645 168.761C15.9645 167.496 16.5907 166.758 18.2697 166.758H20.0313C21.5521 166.758 22.2402 167.441 22.309 168.788C22.3159 168.952 22.2333 169.034 22.075 169.034H21.208C21.0566 169.034 20.974 168.945 20.9672 168.795C20.9121 168.241 20.6506 168.029 20.0313 168.029H18.2835C17.5403 168.029 17.2788 168.2 17.2788 168.767C17.2788 169.294 17.5265 169.43 18.1734 169.478L20.3203 169.642C21.786 169.758 22.4053 170.264 22.4053 171.522C22.4053 172.78 21.7791 173.525 20.0932 173.525H18.194C16.6595 173.525 15.9851 172.848 15.9163 171.495V171.488Z" fill="#006098"/>
<path d="M24.3528 173.279V166.997C24.3528 166.847 24.4422 166.758 24.5936 166.758H25.44C25.5914 166.758 25.6808 166.847 25.6808 166.997V173.279C25.6808 173.429 25.5914 173.518 25.44 173.518H24.5936C24.4422 173.518 24.3528 173.429 24.3528 173.279Z" fill="#006098"/>
<path d="M27.8003 173.279V166.997C27.8003 166.847 27.8897 166.758 28.0411 166.758H32.1767C33.7663 166.758 34.4544 167.599 34.4544 169.294V171.016C34.4544 172.704 33.7732 173.518 32.1767 173.518H28.0411C27.8897 173.518 27.8003 173.429 27.8003 173.279ZM32.0254 172.253C32.7548 172.253 33.1332 172.055 33.1332 171.002V169.307C33.1332 168.255 32.7754 168.036 32.0254 168.036H29.1421V172.26H32.0254V172.253Z" fill="#006098"/>
<path d="M36.4637 173.279V166.997C36.4637 166.847 36.5532 166.758 36.7046 166.758H41.9756C42.127 166.758 42.2165 166.847 42.2165 166.997V167.79C42.2165 167.94 42.127 168.029 41.9756 168.029H37.7918V169.506H40.503C40.6544 169.506 40.7439 169.594 40.7439 169.745V170.442C40.7439 170.592 40.6544 170.681 40.503 170.681H37.7918V172.24H41.9756C42.127 172.24 42.2165 172.328 42.2165 172.479V173.272C42.2165 173.422 42.127 173.511 41.9756 173.511H36.7046C36.5532 173.511 36.4637 173.422 36.4637 173.272V173.279Z" fill="#006098"/>
<path d="M44.1295 173.279V166.997C44.1295 166.847 44.2189 166.758 44.3703 166.758H45.2373C45.3612 166.758 45.4575 166.806 45.5332 166.901L49.2698 171.515V166.997C49.2698 166.847 49.3592 166.758 49.5106 166.758H50.3708C50.5222 166.758 50.6116 166.847 50.6116 166.997V173.279C50.6116 173.429 50.5222 173.518 50.3708 173.518H49.5037C49.3799 173.518 49.2835 173.47 49.2078 173.374L45.4644 168.788V173.279C45.4644 173.429 45.375 173.518 45.2236 173.518H44.3634C44.212 173.518 44.1226 173.429 44.1226 173.279H44.1295Z" fill="#006098"/>
<path d="M54.761 173.279V168.043H52.676C52.5246 168.043 52.4351 167.954 52.4351 167.804V166.997C52.4351 166.847 52.5246 166.758 52.676 166.758H58.181C58.3324 166.758 58.4218 166.847 58.4218 166.997V167.804C58.4218 167.954 58.3324 168.043 58.181 168.043H56.0959V173.279C56.0959 173.429 56.0065 173.518 55.8551 173.518H54.9949C54.8436 173.518 54.7541 173.429 54.7541 173.279H54.761Z" fill="#006098"/>
<path d="M60.2385 173.279V166.997C60.2385 166.847 60.3279 166.758 60.4793 166.758H61.3257C61.4771 166.758 61.5666 166.847 61.5666 166.997V173.279C61.5666 173.429 61.4771 173.518 61.3257 173.518H60.4793C60.3279 173.518 60.2385 173.429 60.2385 173.279Z" fill="#006098"/>
<path d="M69.6245 173.333L69.1703 172.349H65.2755L64.8145 173.333C64.7594 173.449 64.6631 173.518 64.5255 173.518H63.5552C63.3694 173.518 63.2937 173.402 63.3694 173.238L66.4316 166.929C66.4866 166.812 66.5761 166.758 66.7137 166.758H67.7321C67.8698 166.758 67.9523 166.812 68.0143 166.929L71.0696 173.238C71.1452 173.402 71.0696 173.518 70.8838 173.518H69.9066C69.769 173.518 69.6727 173.463 69.6176 173.333H69.6245ZM68.668 171.255L67.2298 168.145L65.771 171.255H68.6611H68.668Z" fill="#006098"/>
<path d="M72.8862 173.279V166.997C72.8862 166.847 72.9757 166.758 73.1271 166.758H73.9872C74.1386 166.758 74.2281 166.847 74.2281 166.997V172.246H78.171C78.3224 172.246 78.4119 172.335 78.4119 172.486V173.279C78.4119 173.429 78.3224 173.518 78.171 173.518H73.1271C72.9757 173.518 72.8862 173.429 72.8862 173.279Z" fill="#006098"/>
<path d="M83.3388 171.194V169.095C83.3388 167.66 84.0201 166.758 85.6234 166.758H87.7704C89.3737 166.758 90.0549 167.66 90.0549 169.095V169.123C90.0549 169.273 89.9655 169.362 89.8141 169.362H88.9539C88.8026 169.362 88.7131 169.294 88.7131 169.198V169.048C88.7131 168.214 88.431 168.036 87.7704 168.036H85.6234C84.9559 168.036 84.6807 168.221 84.6807 169.048V171.242C84.6807 172.069 84.9766 172.246 85.6234 172.246H87.7704C88.4172 172.246 88.7131 172.062 88.7131 171.242V171.057C88.7131 170.907 88.8026 170.818 88.9539 170.818H89.8141C89.9655 170.818 90.0549 170.886 90.0549 171.002V171.194C90.0549 172.622 89.3737 173.518 87.7704 173.518H85.6234C84.0201 173.518 83.3388 172.616 83.3388 171.194Z" fill="#006098"/>
<path d="M91.9266 171.194V169.095C91.9266 167.66 92.6148 166.758 94.2112 166.758H96.6885C98.2918 166.758 98.973 167.66 98.973 169.095V171.194C98.973 172.622 98.2849 173.518 96.6885 173.518H94.2112C92.6079 173.518 91.9266 172.616 91.9266 171.194ZM96.6885 172.246C97.3353 172.246 97.6312 172.062 97.6312 171.242V169.048C97.6312 168.214 97.3628 168.036 96.6885 168.036H94.2112C93.5437 168.036 93.2685 168.221 93.2685 169.048V171.242C93.2685 172.069 93.5644 172.246 94.2112 172.246H96.6885Z" fill="#006098"/>
<path d="M100.996 173.279V166.997C100.996 166.847 101.086 166.758 101.237 166.758H102.104C102.228 166.758 102.324 166.806 102.4 166.901L106.136 171.515V166.997C106.136 166.847 106.226 166.758 106.377 166.758H107.237C107.389 166.758 107.478 166.847 107.478 166.997V173.279C107.478 173.429 107.389 173.518 107.237 173.518H106.37C106.247 173.518 106.15 173.47 106.074 173.374L102.338 168.788V173.279C102.338 173.429 102.249 173.518 102.097 173.518H101.237C101.086 173.518 100.996 173.429 100.996 173.279Z" fill="#006098"/>
<path d="M109.439 171.488C109.433 171.324 109.515 171.242 109.673 171.242H110.534C110.685 171.242 110.768 171.331 110.774 171.481C110.829 172.035 111.091 172.246 111.717 172.246H113.609C114.339 172.246 114.6 172.062 114.6 171.508C114.6 170.955 114.353 170.825 113.706 170.784L111.559 170.62C110.073 170.503 109.488 170.025 109.488 168.761C109.488 167.496 110.114 166.758 111.793 166.758H113.554C115.075 166.758 115.763 167.441 115.832 168.788C115.839 168.952 115.756 169.034 115.598 169.034H114.731C114.58 169.034 114.497 168.945 114.49 168.795C114.435 168.241 114.174 168.029 113.554 168.029H111.807C111.063 168.029 110.802 168.2 110.802 168.767C110.802 169.294 111.05 169.43 111.696 169.478L113.843 169.642C115.309 169.758 115.928 170.264 115.928 171.522C115.928 172.78 115.302 173.525 113.616 173.525H111.717C110.183 173.525 109.508 172.848 109.439 171.495V171.488Z" fill="#006098"/>
<path d="M119.858 173.279V168.043H117.773C117.621 168.043 117.532 167.954 117.532 167.804V166.997C117.532 166.847 117.621 166.758 117.773 166.758H123.278C123.429 166.758 123.518 166.847 123.518 166.997V167.804C123.518 167.954 123.429 168.043 123.278 168.043H121.193V173.279C121.193 173.429 121.103 173.518 120.952 173.518H120.092C119.94 173.518 119.851 173.429 119.851 173.279H119.858Z" fill="#006098"/>
<path d="M130.4 171.611L131.549 173.231C131.666 173.395 131.59 173.518 131.398 173.518H130.393C130.269 173.518 130.173 173.47 130.104 173.367L129.051 171.747H126.677V173.279C126.677 173.429 126.588 173.518 126.436 173.518H125.576C125.425 173.518 125.335 173.429 125.335 173.279V166.997C125.335 166.847 125.425 166.758 125.576 166.758H129.072C131.047 166.758 131.797 167.585 131.797 169.198V169.341C131.797 170.51 131.418 171.303 130.393 171.611H130.4ZM130.455 169.205C130.455 168.207 130.021 168.029 128.968 168.029H126.677V170.483H128.968C130.001 170.483 130.455 170.312 130.455 169.335V169.212V169.205Z" fill="#006098"/>
<path d="M133.758 171.195V167.005C133.758 166.854 133.847 166.766 133.999 166.766H134.859C135.01 166.766 135.1 166.854 135.1 167.005V171.249C135.1 172.077 135.395 172.254 136.042 172.254H138.21C138.857 172.254 139.146 172.07 139.146 171.249V167.005C139.146 166.854 139.235 166.766 139.387 166.766H140.254C140.405 166.766 140.495 166.854 140.495 167.005V171.195C140.495 172.623 139.8 173.519 138.21 173.519H136.042C134.439 173.519 133.758 172.616 133.758 171.195Z" fill="#006098"/>
<path d="M142.518 171.194V169.095C142.518 167.66 143.206 166.758 144.802 166.758H146.949C148.552 166.758 149.234 167.66 149.234 169.095V169.123C149.234 169.273 149.144 169.362 148.993 169.362H148.133C147.981 169.362 147.892 169.294 147.892 169.198V169.048C147.892 168.214 147.61 168.036 146.949 168.036H144.802C144.135 168.036 143.859 168.221 143.859 169.048V171.242C143.859 172.069 144.155 172.246 144.802 172.246H146.949C147.596 172.246 147.892 172.062 147.892 171.242V171.057C147.892 170.907 147.981 170.818 148.133 170.818H148.993C149.144 170.818 149.234 170.886 149.234 171.002V171.194C149.234 172.622 148.552 173.518 146.949 173.518H144.802C143.199 173.518 142.518 172.616 142.518 171.194Z" fill="#006098"/>
<path d="M153.19 173.279V168.043H151.105C150.954 168.043 150.865 167.954 150.865 167.804V166.997C150.865 166.847 150.954 166.758 151.105 166.758H156.61C156.762 166.758 156.851 166.847 156.851 166.997V167.804C156.851 167.954 156.762 168.043 156.61 168.043H154.525V173.279C154.525 173.429 154.436 173.518 154.285 173.518H153.424C153.273 173.518 153.184 173.429 153.184 173.279H153.19Z" fill="#006098"/>
<path d="M158.668 173.279V166.997C158.668 166.847 158.757 166.758 158.909 166.758H159.755C159.907 166.758 159.996 166.847 159.996 166.997V173.279C159.996 173.429 159.907 173.518 159.755 173.518H158.909C158.757 173.518 158.668 173.429 158.668 173.279Z" fill="#006098"/>
<path d="M162.012 171.194V169.095C162.012 167.66 162.693 166.758 164.297 166.758H166.774C168.377 166.758 169.059 167.66 169.059 169.095V171.194C169.059 172.622 168.377 173.518 166.774 173.518H164.297C162.693 173.518 162.012 172.616 162.012 171.194ZM166.774 172.246C167.421 172.246 167.717 172.062 167.717 171.242V169.048C167.717 168.214 167.448 168.036 166.774 168.036H164.297C163.629 168.036 163.354 168.221 163.354 169.048V171.242C163.354 172.069 163.65 172.246 164.297 172.246H166.774Z" fill="#006098"/>
<path d="M171.082 173.279V166.997C171.082 166.847 171.171 166.758 171.323 166.758H172.19C172.313 166.758 172.41 166.806 172.485 166.901L176.222 171.515V166.997C176.222 166.847 176.311 166.758 176.463 166.758H177.323C177.474 166.758 177.564 166.847 177.564 166.997V173.279C177.564 173.429 177.474 173.518 177.323 173.518H176.456C176.332 173.518 176.236 173.47 176.16 173.374L172.424 168.788V173.279C172.424 173.429 172.334 173.518 172.183 173.518H171.323C171.171 173.518 171.082 173.429 171.082 173.279Z" fill="#006098"/>
<path d="M24.105 182.676V180.578C24.105 179.142 24.7863 178.24 26.3896 178.24H28.5365C30.1399 178.24 30.8211 179.142 30.8211 180.578V180.605C30.8211 180.756 30.7317 180.844 30.5803 180.844H29.7201C29.5687 180.844 29.4793 180.776 29.4793 180.68V180.53C29.4793 179.696 29.1971 179.518 28.5365 179.518H26.3896C25.7221 179.518 25.4469 179.703 25.4469 180.53V182.724C25.4469 183.551 25.7427 183.729 26.3896 183.729H28.5365C29.1834 183.729 29.4793 183.544 29.4793 182.724V182.54C29.4793 182.389 29.5687 182.3 29.7201 182.3H30.5803C30.7317 182.3 30.8211 182.369 30.8211 182.485V182.676C30.8211 184.105 30.1399 185 28.5365 185H26.3896C24.7863 185 24.105 184.098 24.105 182.676Z" fill="#006098"/>
<path d="M32.6928 182.676V180.578C32.6928 179.142 33.3741 178.24 34.9774 178.24H37.4546C39.058 178.24 39.7392 179.142 39.7392 180.578V182.676C39.7392 184.105 39.058 185 37.4546 185H34.9774C33.3741 185 32.6928 184.098 32.6928 182.676ZM37.4546 183.729C38.1015 183.729 38.3974 183.544 38.3974 182.724V180.53C38.3974 179.696 38.129 179.518 37.4546 179.518H34.9774C34.3099 179.518 34.0347 179.703 34.0347 180.53V182.724C34.0347 183.551 34.3306 183.729 34.9774 183.729H37.4546Z" fill="#006098"/>
<path d="M41.7554 182.677V178.487C41.7554 178.337 41.8449 178.248 41.9963 178.248H42.8564C43.0078 178.248 43.0973 178.337 43.0973 178.487V182.732C43.0973 183.559 43.3932 183.737 44.04 183.737H46.2076C46.8544 183.737 47.1435 183.552 47.1435 182.732V178.487C47.1435 178.337 47.2329 178.248 47.3843 178.248H48.2513C48.4027 178.248 48.4922 178.337 48.4922 178.487V182.677C48.4922 184.106 47.7972 185.001 46.2076 185.001H44.04C42.4367 185.001 41.7554 184.099 41.7554 182.677Z" fill="#006098"/>
<path d="M50.6391 184.761V178.479C50.6391 178.329 50.7286 178.24 50.88 178.24H51.747C51.8709 178.24 51.9672 178.288 52.0429 178.384L55.7794 182.998V178.479C55.7794 178.329 55.8689 178.24 56.0203 178.24H56.8804C57.0318 178.24 57.1213 178.329 57.1213 178.479V184.761C57.1213 184.911 57.0318 185 56.8804 185H56.0134C55.8895 185 55.7932 184.952 55.7175 184.857L51.9741 180.27V184.761C51.9741 184.911 51.8847 185 51.7333 185H50.8731C50.7217 185 50.6323 184.911 50.6323 184.761H50.6391Z" fill="#006098"/>
<path d="M59.1512 182.676V180.578C59.1512 179.142 59.8325 178.24 61.4358 178.24H63.5828C65.1861 178.24 65.8673 179.142 65.8673 180.578V180.605C65.8673 180.756 65.7779 180.844 65.6265 180.844H64.7663C64.615 180.844 64.5255 180.776 64.5255 180.68V180.53C64.5255 179.696 64.2434 179.518 63.5828 179.518H61.4358C60.7683 179.518 60.4931 179.703 60.4931 180.53V182.724C60.4931 183.551 60.789 183.729 61.4358 183.729H63.5828C64.2296 183.729 64.5255 183.544 64.5255 182.724V182.54C64.5255 182.389 64.615 182.3 64.7663 182.3H65.6265C65.7779 182.3 65.8673 182.369 65.8673 182.485V182.676C65.8673 184.105 65.1861 185 63.5828 185H61.4358C59.8325 185 59.1512 184.098 59.1512 182.676Z" fill="#006098"/>
<path d="M67.7941 184.761V178.479C67.7941 178.329 67.8836 178.24 68.0349 178.24H68.8813C69.0327 178.24 69.1222 178.329 69.1222 178.479V184.761C69.1222 184.911 69.0327 185 68.8813 185H68.0349C67.8836 185 67.7941 184.911 67.7941 184.761Z" fill="#006098"/>
<path d="M71.2416 184.761V178.479C71.2416 178.329 71.331 178.24 71.4824 178.24H72.3426C72.494 178.24 72.5834 178.329 72.5834 178.479V183.729H76.5264C76.6778 183.729 76.7672 183.818 76.7672 183.968V184.761C76.7672 184.911 76.6778 185 76.5264 185H71.4824C71.331 185 71.2416 184.911 71.2416 184.761Z" fill="#006098"/>
<path d="M81.6942 182.676V180.578C81.6942 179.142 82.3755 178.24 83.9788 178.24H86.456C88.0594 178.24 88.7406 179.142 88.7406 180.578V182.676C88.7406 184.105 88.0594 185 86.456 185H83.9788C82.3755 185 81.6942 184.098 81.6942 182.676ZM86.456 183.729C87.1029 183.729 87.3988 183.544 87.3988 182.724V180.53C87.3988 179.696 87.1304 179.518 86.456 179.518H83.9788C83.3113 179.518 83.0361 179.703 83.0361 180.53V182.724C83.0361 183.551 83.3319 183.729 83.9788 183.729H86.456Z" fill="#006098"/>
<path d="M90.7637 184.761V178.479C90.7637 178.329 90.8532 178.24 91.0046 178.24H96.1242C96.2756 178.24 96.365 178.329 96.365 178.479V179.272C96.365 179.423 96.2756 179.512 96.1242 179.512H92.0918V180.988H94.686C94.8374 180.988 94.9269 181.077 94.9269 181.227V181.924C94.9269 182.075 94.8374 182.164 94.686 182.164H92.0918V184.761C92.0918 184.911 92.0023 185 91.8509 185H91.0046C90.8532 185 90.7637 184.911 90.7637 184.761Z" fill="#006098"/>
<path d="M101.375 182.676V180.578C101.375 179.142 102.063 178.24 103.659 178.24H106.136C107.74 178.24 108.421 179.142 108.421 180.578V182.676C108.421 184.105 107.733 185 106.136 185H103.659C102.056 185 101.375 184.098 101.375 182.676ZM106.136 183.729C106.783 183.729 107.079 183.544 107.079 182.724V180.53C107.079 179.696 106.811 179.518 106.136 179.518H103.659C102.992 179.518 102.716 179.703 102.716 180.53V182.724C102.716 183.551 103.012 183.729 103.659 183.729H106.136Z" fill="#006098"/>
<path d="M110.444 184.761V178.479C110.444 178.329 110.534 178.24 110.685 178.24H111.552C111.676 178.24 111.772 178.288 111.848 178.384L115.584 182.998V178.479C115.584 178.329 115.674 178.24 115.825 178.24H116.685C116.837 178.24 116.926 178.329 116.926 178.479V184.761C116.926 184.911 116.837 185 116.685 185H115.818C115.694 185 115.598 184.952 115.522 184.857L111.786 180.27V184.761C111.786 184.911 111.696 185 111.545 185H110.685C110.534 185 110.444 184.911 110.444 184.761Z" fill="#006098"/>
<path d="M121.069 184.761V179.525H118.984C118.832 179.525 118.743 179.436 118.743 179.286V178.479C118.743 178.329 118.832 178.24 118.984 178.24H124.489C124.64 178.24 124.73 178.329 124.73 178.479V179.286C124.73 179.436 124.64 179.525 124.489 179.525H122.404V184.761C122.404 184.911 122.314 185 122.163 185H121.303C121.151 185 121.062 184.911 121.062 184.761H121.069Z" fill="#006098"/>
<path d="M131.411 184.816L130.957 183.831H127.062L126.601 184.816C126.546 184.932 126.45 185 126.312 185H125.342C125.156 185 125.081 184.884 125.156 184.72L128.218 178.411C128.273 178.295 128.363 178.24 128.5 178.24H129.526C129.663 178.24 129.746 178.295 129.808 178.411L132.863 184.72C132.939 184.884 132.863 185 132.677 185H131.7C131.563 185 131.466 184.946 131.411 184.816ZM130.455 182.738L129.017 179.628L127.558 182.738H130.448H130.455Z" fill="#006098"/>
<path d="M139.738 183.093L140.887 184.713C141.004 184.877 140.928 185 140.735 185H139.731C139.607 185 139.51 184.952 139.442 184.85L138.389 183.23H136.015V184.761C136.015 184.911 135.925 185 135.774 185H134.914C134.762 185 134.673 184.911 134.673 184.761V178.479C134.673 178.329 134.762 178.24 134.914 178.24H138.409C140.384 178.24 141.134 179.067 141.134 180.68V180.824C141.134 181.993 140.756 182.786 139.731 183.093H139.738ZM139.793 180.687C139.793 179.689 139.359 179.512 138.306 179.512H136.015V181.965H138.306C139.338 181.965 139.793 181.795 139.793 180.817V180.694V180.687Z" fill="#006098"/>
<path d="M143.075 184.761V178.479C143.075 178.329 143.164 178.24 143.316 178.24H144.162C144.314 178.24 144.403 178.329 144.403 178.479V184.761C144.403 184.911 144.314 185 144.162 185H143.316C143.164 185 143.075 184.911 143.075 184.761Z" fill="#006098"/>
<path d="M146.412 182.676V180.578C146.412 179.142 147.1 178.24 148.697 178.24H151.174C152.778 178.24 153.459 179.142 153.459 180.578V182.676C153.459 184.105 152.771 185 151.174 185H148.697C147.094 185 146.412 184.098 146.412 182.676ZM151.174 183.729C151.821 183.729 152.117 183.544 152.117 182.724V180.53C152.117 179.696 151.849 179.518 151.174 179.518H148.697C148.029 179.518 147.754 179.703 147.754 180.53V182.724C147.754 183.551 148.05 183.729 148.697 183.729H151.174Z" fill="#006098"/>
<path d="M57.9264 80.5254H54.816V90.0331H57.9264V80.5254Z" fill="#006098"/>
<path d="M57.9264 92.5762H54.816V102.084H57.9264V92.5762Z" fill="#006098"/>
<path d="M57.9264 104.627H54.816V114.135H57.9264V104.627Z" fill="#006098"/>
<path d="M57.9264 116.676H54.816V126.183H57.9264V116.676Z" fill="#006098"/>
<path d="M65.4957 80.5254H62.3854V90.0331H65.4957V80.5254Z" fill="#006098"/>
<path d="M65.4957 92.5762H62.3854V102.084H65.4957V92.5762Z" fill="#006098"/>
<path d="M65.4957 104.627H62.3854V114.135H65.4957V104.627Z" fill="#006098"/>
<path d="M65.4957 116.676H62.3854V126.183H65.4957V116.676Z" fill="#006098"/>
<path d="M90.6123 0.000974182C91.4174 0.199193 92.2363 0.363237 93.0345 0.595632C97.2871 1.8533 100.047 5.32555 100.425 9.89143C100.501 10.821 100.569 11.7506 100.494 12.6938C100.452 13.1586 100.315 13.3158 99.8263 13.3363C98.2299 13.3842 98.2299 13.4047 97.9133 14.9904C97.3628 17.7724 96.193 20.2057 93.8534 21.935C93.3786 22.2835 93.4818 22.598 93.702 22.9602C94.0048 23.4592 94.5071 23.7258 94.9957 24.0128C98.0647 25.7831 101.388 27.0476 104.485 28.7769C105.724 29.4673 106.742 30.3217 107.499 31.5178C111.057 37.1431 114.628 42.7548 118.192 48.3665C118.536 48.346 118.571 48.052 118.688 47.8675C122.197 42.3652 125.714 36.8561 129.202 31.3401C129.897 30.2465 130.819 29.4673 131.948 28.859C134.35 27.5603 136.827 26.4256 139.277 25.2432C140.233 24.7784 141.176 24.2726 142.084 23.7121C143.392 22.9055 143.467 21.6547 142.325 20.6226C137.776 16.5078 137.329 8.48339 141.382 3.8765C144.685 0.124007 149.653 0.165018 152.908 3.97219C156.81 8.53123 156.452 16.3575 152.165 20.3902C151.986 20.5611 151.794 20.7251 151.594 20.8823C150.452 21.7641 150.465 22.8509 151.704 23.6437C153.101 24.5391 154.574 25.3252 156.108 25.9677C158.166 26.8289 160.092 27.943 162.081 28.9341C163.148 29.4673 163.973 30.2533 164.627 31.2376C167.737 35.9265 170.861 40.6017 173.972 45.2906C175.355 47.3822 175.265 49.9659 173.848 52.0643C170.07 57.6759 165.611 62.7544 161.276 67.9286C160.918 68.3592 160.904 68.742 160.98 69.2136C161.826 74.258 162.68 79.2955 163.512 84.3398C165.122 94.0252 166.719 103.717 168.322 113.403C168.715 115.768 169.121 118.14 169.52 120.505C169.747 121.878 169.527 123.184 168.852 124.394C168.178 125.59 167.187 126.273 165.721 126.239C163.526 126.191 161.324 126.205 159.122 126.239C158.51 126.246 158.31 126.089 158.317 125.46C158.344 121.4 158.344 117.347 158.317 113.287C158.317 112.671 158.496 112.412 159.115 112.514C159.803 112.63 159.913 112.289 159.776 111.708C158.633 106.916 157.354 102.166 155.372 97.6273C154.986 96.7524 155.207 95.775 155.248 94.8591C155.289 93.95 155 93.5946 154.092 93.7313C153.817 93.7723 153.528 93.7313 153.245 93.7313C151.855 93.7313 151.677 93.9432 151.924 95.2966C152.209 96.814 151.61 97.5704 150.128 97.5658C147.396 97.5658 144.658 97.5932 141.926 97.5453C141.224 97.5316 140.859 97.7709 140.556 98.3724C138.967 101.51 138.065 104.879 137.219 108.263C136.902 109.527 136.682 110.819 136.366 112.091C136.235 112.61 136.366 112.808 136.875 112.719C137.77 112.562 137.887 113 137.88 113.772C137.845 117.613 137.845 121.448 137.88 125.289C137.887 126.027 137.687 126.253 136.937 126.219C135.526 126.157 134.109 126.15 132.698 126.219C131.879 126.26 131.728 125.966 131.735 125.221C131.762 118.727 131.748 112.234 131.748 105.747C131.748 96.0689 131.742 86.3972 131.762 76.7186C131.762 75.9189 131.625 75.4541 130.709 75.6455C129.409 75.9121 128.714 75.2559 128.039 74.2033C125.136 69.6853 122.128 65.2288 119.156 60.7449C119.004 60.5125 118.832 60.2938 118.605 59.993C117.353 62.0299 116.142 63.9984 114.938 65.9601C113.107 68.9402 111.27 71.9204 109.467 74.9142C109.137 75.461 108.786 75.6729 108.132 75.6592C106.143 75.6113 106.136 75.6387 106.136 77.6414C106.136 93.4647 106.13 109.288 106.157 125.111C106.157 126.034 105.909 126.273 105.008 126.219C103.632 126.137 102.242 126.185 100.859 126.205C100.377 126.212 100.205 126.068 100.205 125.569C100.219 121.42 100.219 117.265 100.177 113.116C100.177 112.405 100.569 112.453 101.01 112.494C101.581 112.542 101.787 112.405 101.636 111.769C100.659 107.579 99.5786 103.417 97.9408 99.4318C97.294 97.8461 96.8192 96.2877 97.0256 94.5857C97.1151 93.8543 96.8054 93.7108 96.1242 93.7108C93.8809 93.7245 93.8809 93.704 93.8809 95.9391C93.8809 97.0236 93.3419 97.5658 92.2638 97.5658C89.47 97.5658 86.6693 97.6 83.8756 97.5453C83.0911 97.5316 82.692 97.8051 82.3617 98.4612C80.8341 101.489 79.9601 104.743 79.1275 108.003C78.8041 109.268 78.5564 110.559 78.2398 111.824C78.0816 112.473 78.1504 112.863 78.9555 112.733C79.5335 112.637 79.7055 112.877 79.6986 113.458C79.678 117.483 79.678 121.509 79.6986 125.535C79.6986 126.075 79.5266 126.226 79.0036 126.219C77.4003 126.191 75.797 126.178 74.1936 126.219C73.5743 126.232 73.4023 126.048 73.4092 125.433C73.4367 122.063 73.4229 118.693 73.4229 115.324C73.4229 102.432 73.4161 89.5414 73.4436 76.6503C73.4436 75.8232 73.244 75.4815 72.4114 75.6387C70.8218 75.9394 69.8997 75.2696 69.0258 73.9094C66.2664 69.6306 63.335 65.4612 60.4655 61.2507C60.2935 60.9978 60.1077 60.7449 59.8944 60.4442C59.5091 60.6971 59.3852 61.0935 59.1788 61.4216C56.3437 65.9123 53.5086 70.403 50.7011 74.9142C50.357 75.461 49.9992 75.707 49.3523 75.6592C48.6367 75.6045 47.9004 75.7002 47.1847 75.6318C46.414 75.5567 46.2626 75.8642 46.2626 76.5683C46.2833 88.4614 46.2764 100.355 46.2764 112.241C46.2764 116.547 46.2489 120.853 46.3039 125.159C46.3177 126.055 46.0356 126.26 45.1961 126.219C43.8473 126.15 42.4917 126.164 41.143 126.219C40.4686 126.246 40.2209 126.096 40.2278 125.358C40.2622 121.332 40.2553 117.306 40.2278 113.28C40.2278 112.692 40.3585 112.398 41.0054 112.494C41.6247 112.583 41.8105 112.405 41.6522 111.721C40.62 107.224 39.4433 102.761 37.5923 98.5227C37.0074 97.1831 37.0693 95.8775 37.0762 94.531C37.0762 93.8612 36.856 93.6971 36.2091 93.7108C33.9039 93.7655 33.9039 93.7381 33.9039 96.0142C33.9039 97.0532 33.3741 97.5727 32.3143 97.5727C29.4517 97.5727 26.596 97.5932 23.7334 97.559C23.1141 97.5521 22.7701 97.7435 22.4879 98.2904C21.0153 101.106 20.1621 104.134 19.3707 107.183C18.9647 108.748 18.6413 110.341 18.2697 111.92C18.1459 112.453 18.1183 112.877 18.8753 112.747C19.6253 112.617 19.7423 112.979 19.7354 113.642C19.7079 117.545 19.7079 121.448 19.7354 125.344C19.7354 126.027 19.5909 126.26 18.8615 126.239C17.1962 126.178 15.531 126.205 13.8657 126.226C12.572 126.246 11.65 125.665 10.9825 124.612C9.99845 123.061 9.92964 121.393 10.3219 119.657C13.8588 103.977 17.3889 88.2974 20.9396 72.6175C21.0841 71.975 20.9396 71.6059 20.4098 71.2163C15.7993 67.8603 11.2233 64.4632 6.61976 61.1003C3.46126 58.79 3.05527 56.0628 5.10588 52.7546C7.94096 48.1887 10.5834 43.5135 13.3083 38.8793C14.7121 36.4801 16.1296 34.0878 17.4921 31.6682C18.2284 30.3695 19.2469 29.4263 20.5818 28.7633C23.5889 27.2732 26.5823 25.7626 29.5756 24.2521C30.1605 23.9582 30.7661 23.6847 31.2065 23.1653C31.6262 22.6595 31.6882 22.0785 31.4886 21.4907C31.2753 20.8618 30.6973 21.1079 30.2706 21.1079C28.3852 21.0874 26.4997 21.1011 24.4491 21.1011C25.3024 19.9869 25.8184 18.825 26.1212 17.5605C26.5823 15.6193 26.4309 13.6508 26.4722 11.6891C26.541 8.38086 27.7108 5.48276 30.2293 3.30918C34.5232 -0.388629 39.3126 0.732335 42.1201 4.89494C43.7097 7.2599 44.2464 9.9256 44.1845 12.728C44.1501 14.1634 44.1295 15.5919 44.3978 17.0136C44.6662 18.4422 45.0997 19.7887 46.1388 20.9712C45.4507 21.1968 44.8107 21.0737 44.1776 21.0874C42.9872 21.1079 41.7898 21.0874 40.5925 21.0942C40.1315 21.0942 39.5534 20.9644 39.3676 21.5248C39.175 22.0922 39.2162 22.7005 39.6566 23.1995C39.9732 23.5617 40.3861 23.7873 40.7989 24.0128C44.5286 26.0839 48.2513 28.1549 51.9878 30.2055C52.5452 30.5131 52.8893 30.9027 53.137 31.4836C55.4354 36.9108 57.7543 42.3242 60.0733 47.7445C60.149 47.9153 60.2385 48.0794 60.3486 48.2844C60.8853 47.8401 61.1606 47.2387 61.5184 46.7055C64.9728 41.6065 68.4134 36.5006 71.8403 31.388C72.611 30.2397 73.6019 29.4126 74.813 28.7428C77.7513 27.116 80.8822 25.8925 83.8068 24.2521C84.1371 24.0675 84.4742 23.9035 84.7908 23.6984C85.9193 22.9739 85.9399 22.4886 84.9628 21.6274C82.2103 19.2146 81.068 16.1046 81.1575 12.5298C81.1781 11.6891 80.8822 11.3815 80.1528 11.1969C79.4303 11.0056 78.7284 10.7253 78.0127 10.4861C77.7306 10.3904 77.3109 10.3972 77.3521 9.97345C77.3866 9.61802 77.7581 9.55651 78.0609 9.46081C78.749 9.24892 79.4372 9.03703 80.1046 8.7773C80.9373 8.45605 81.4602 7.90924 81.6804 6.97282C82.2103 4.72406 83.5521 3.03578 85.6372 2.01051C86.3735 1.64824 86.8689 1.32699 86.4492 0.438423C86.3872 0.315391 86.4492 0.130842 86.4492 -0.0195312H90.5985L90.6123 0.000974182ZM20.9328 44.3474C18.951 48.0179 17.0999 51.4833 15.2144 54.9282C14.9667 55.3793 15.1938 55.6117 15.4346 55.8988C16.9279 57.7101 18.4142 59.5214 19.9006 61.3327C20.802 62.4263 21.7035 63.5131 22.7219 64.7366C23.0728 63.1304 23.3825 61.736 23.6853 60.3416C23.8229 59.706 24.1325 59.0908 23.988 58.4278C22.9903 53.8072 21.9787 49.1867 20.9259 44.3474H20.9328ZM46.07 66.008L46.2558 66.09C47.9761 63.1645 49.6964 60.2459 51.4167 57.3205C51.9534 56.4046 52.8755 55.5092 52.9168 54.5659C52.965 53.5748 51.9328 52.6863 51.3754 51.7498C50.2607 49.8839 49.1184 48.0384 47.8384 45.9537C47.2329 52.823 46.648 59.412 46.0631 66.008H46.07ZM105.331 47.929L105.159 47.97C104.96 54.0191 104.76 60.0682 104.567 66.1173C106.632 62.98 108.524 59.8016 110.417 56.6233C110.575 56.3567 110.499 56.1654 110.355 55.9466C108.676 53.2809 107.003 50.6084 105.331 47.9358V47.929ZM73.8221 64.1146L73.9941 64.0599C73.5055 59.0566 73.017 54.0465 72.5284 49.0158C72.3908 49.0773 72.3151 49.0841 72.2807 49.1252C71.1659 50.3897 70.0511 51.6542 68.9364 52.9255C68.3996 53.5338 67.5464 54.1011 67.4363 54.7847C67.3262 55.4818 68.2345 56.1038 68.6611 56.7874C68.7437 56.9172 68.8332 57.0471 68.9226 57.177C70.5535 59.4941 72.1843 61.8112 73.8152 64.1283L73.8221 64.1146ZM159.046 57.6281L159.212 57.7169C160.863 55.0786 162.515 52.4402 164.166 49.8018C164.29 49.6105 164.386 49.4259 164.221 49.2072C163.12 47.7445 162.026 46.2817 160.787 44.6345C160.182 49.1252 159.611 53.3766 159.039 57.6281H159.046ZM131.377 62.7749L131.576 62.7476L129.835 50.3555C128.638 51.743 127.592 52.9802 126.512 54.19C126.237 54.4976 126.319 54.7163 126.505 55.0102C128.136 57.5939 129.753 60.1844 131.377 62.7749Z" fill="#006098"/>
<path d="M116.417 80.5254H113.307V90.0331H116.417V80.5254Z" fill="#006098"/>
<path d="M116.417 92.5762H113.307V102.084H116.417V92.5762Z" fill="#006098"/>
<path d="M116.417 104.627H113.307V114.135H116.417V104.627Z" fill="#006098"/>
<path d="M116.417 116.676H113.307V126.183H116.417V116.676Z" fill="#006098"/>
<path d="M123.986 80.5254H120.876V90.0331H123.986V80.5254Z" fill="#006098"/>
<path d="M123.986 92.5762H120.876V102.084H123.986V92.5762Z" fill="#006098"/>
<path d="M123.986 104.627H120.876V114.135H123.986V104.627Z" fill="#006098"/>
<path d="M123.986 116.676H120.876V126.183H123.986V116.676Z" fill="#006098"/>
<path d="M33.0025 115.289V112.199H27.2085V115.289H33.0025Z" fill="#006098"/>
<path d="M32.9956 126.178V117.668H27.2016V126.178H32.9956Z" fill="#006098"/>
<path d="M92.5253 115.289V112.199H86.7313V115.289H92.5253Z" fill="#006098"/>
<path d="M92.5184 126.178V117.668H86.7244V126.178H92.5184Z" fill="#006098"/>
<path d="M150.672 115.289V112.199H144.878V115.289H150.672Z" fill="#006098"/>
<path d="M150.665 126.178V117.668H144.871V126.178H150.665Z" fill="#006098"/>
<path d="M183 138.849V140.948C183 142.315 182.546 143.272 180.715 143.272H178.183C176.353 143.272 175.899 142.315 175.899 140.948V138.849C175.899 137.469 176.353 136.512 178.183 136.512H180.715C182.546 136.512 183 137.469 183 138.849ZM182.112 138.678C182.112 137.728 181.699 137.373 180.881 137.373H178.018C177.206 137.373 176.8 137.728 176.8 138.678V141.112C176.8 142.069 177.234 142.424 178.018 142.424H180.881C181.679 142.424 182.112 142.069 182.112 141.112V138.678ZM181.493 139.376V139.499C181.493 140.114 181.28 140.544 180.647 140.736L181.232 141.549C181.348 141.713 181.273 141.836 181.08 141.836H180.571C180.447 141.836 180.351 141.788 180.282 141.686L179.704 140.832H178.451V141.597C178.451 141.747 178.362 141.836 178.211 141.836H177.77C177.619 141.836 177.529 141.747 177.529 141.597V138.227C177.529 138.077 177.619 137.988 177.77 137.988H179.676C181.032 137.988 181.5 138.467 181.5 139.376H181.493ZM178.445 139.957H179.89C180.392 139.957 180.571 139.813 180.571 139.485V139.369C180.571 139.013 180.399 138.863 179.89 138.863H178.445V139.957Z" fill="#8A7A28"/>
</g>
<defs>
<clipPath id="clip0_595_8112">
<rect width="183" height="185" fill="white"/>
</clipPath>
</defs>
</svg>
